<svg height="157.82767" width="145.75" xmlns="http://www.w3.org/2000/svg"><g transform="translate(-529.16848 -206.797201)"><path d="m512.87 26.15c1.4-.02 2.81-.04 4.22-.05.02.78.05 2.33.07 3.11-1.44 0-2.88-.01-4.31-.01 0-.76.02-2.28.02-3.05z" fill="#101010" opacity=".85" transform="matrix(1.25 0 0 1.25 -2.50652 174.1722)"/><g fill="#131313"><path d="m531.79348 207.6597c3.2125.025 6.4375.0375 9.675.05-.275 5.75.85 11.725-.775 17.325-2.1 4.025-7.325 3.2375-11.0875 3.3125-.15-1.275-.3-2.55-.4375-3.825 2.1625-.175 4.5125.25 6.5-.8625 1.2875-3.9875.7125-8.25.3875-12.35-1.1.025-3.2875.05-4.3875.0625.0375-.925.0875-2.7875.125-3.7125z"/><path d="m596.15598 209.2347c3.7875-2.925 8.7625-1.725 12.975-.5875-.0125 1.1125-.025 3.3375-.025 4.45-3.2625-1.3125-9.4625-4.175-10.2875 1.225 3.0875.9375 6.35 1.4875 9.15 3.1625 2.975 2.425 2.1375 7.9375-1.2875 9.6-3.9 2.3125-8.525 1.05-12.6375.2125-.2375-1.7125-.475-3.4125-.6875-5.125 3.4625 1.525 10.475 5.1375 11.5125-.7-3.475-1.3125-7.8-1.5-10.325-4.5-1.1125-2.55-.925-6.1 1.6125-7.7375z"/><path d="m665.26848 208.3722h4.425c.0375 1.4125.0875 2.825.15 4.2375 1.125.0125 3.3875.0375 4.525.05.025.8625.0625 2.575.0875 3.425-1.15-.0125-3.45-.0375-4.6-.0625.0625 2.8625-.675 5.9875.7625 8.625 1.075.1125 3.225.325 4.3.4375-.1125 5.2625-6.1125 2.875-9.2875 2.05-.2875-3.2125-.425-6.425-.425-9.65-.8125-1.1375-1.625-2.2875-2.425-3.425l2.45-2.25c.0125-.8625.025-2.5875.0375-3.4375z"/><path d="m545.36848 212.7722c4.075-.2125 9.775-1.725 12.3375 2.4875.9125 4.175.3375 8.5125.475 12.7625-1.825-.1625-3.65-.3375-5.4625-.5-2.075.175-4.5125 1.7125-6.425.3375-3.175-1.525-3.225-7.15.1125-8.5125 2.425-1 5.075-1.175 7.6125-1.775-2.4125-2.5-5.8375-1.55-8.875-1.225.0625-.9.175-2.6875.225-3.575m3.975 8.5875c-.1375 1.2125-.2625 2.425-.375 3.65 1.3875-.075 2.775-.1375 4.175-.2125.1-1.3125.2125-2.625.325-3.9375-1.3875.1625-2.7625.3375-4.125.5z"/><path d="m560.04348 212.3347c1.2.2375 3.6125.7125 4.8125.95 1.2625 2.9 2.125 5.95 3.35 8.875 1.025-3.125 1.975-6.2875 2.9-9.45 1.2-.025 3.6125-.0625 4.8125-.0875-1.7 5.3625-3.6 10.6625-5.725 15.8875-1.65-.2125-3.275-.5625-4.85-1.025-2.275-4.85-3.775-10.025-5.3-15.15z"/><path d="m577.46848 216.3222c.35-1.1875.75-2.375 1.1875-3.5375 3.875-.5625 9.125-1.3875 11.7875 2.2375.9125 4.325.35 8.8.4375 13.1875-1.8375-.25-3.6625-.5-5.4875-.75-3.275 1.7375-8.7375 1.1125-8.6625-3.5-.625-5.475 6.2125-5.55 9.925-6.275-2.2375-3-6.1125-1.4125-9.1875-1.3625m4.525 5.15c-.1375 1.125-.2625 2.2625-.3875 3.3875 1.375.0375 2.75.075 4.1375.1.125-1.3875.25-2.7625.375-4.15-1.375.2125-2.75.4375-4.125.6625z"/><path d="m610.90598 220.4097c-.3875-6.8 8.2625-10.3625 13.4375-6.7375.125.9625.3625 2.9.475 3.8625-2.375-.75-4.8125-2.45-7.3625-1.3-2.7 2.575-2.1375 9.1125 2.4375 8.725 1.2625-.4 3.775-1.2 5.0375-1.6-.225 1.075-.6625 3.225-.875 4.2875-5.4125 2.55-13.575-.4625-13.15-7.2375z"/><path d="m626.89348 212.2847c1.875.5 3.7875 1 5.675 1.5375 1.4125-.5125 2.8375-1.0125 4.275-1.525.0625 1.2.2125 3.6.2875 4.8-1.8.0875-3.6.175-5.375.2625-.125 3.5875-.1625 7.1625-.1875 10.75-1.175.0125-3.5375.025-4.7125.0375-.0625-5.2875-.075-10.575.0375-15.8625z"/><path d="m647.21848 212.6222c3.45.775 6.925.5375 10.3625-.15 5.3875 1.1125 5.5125 8.75 3.4625 12.75-1.7 3.45-5.8625 3.125-9.075 2.95.025 1.825.05 3.6375.075 5.4625-1.2-.0125-3.625-.0375-4.8375-.0625 0-6.975-.0125-13.9625.0125-20.95m4.875 3.675c-.05 2.9125-.075 5.8375-.05 8.75 1.55-.425 3.55-.125 4.725-1.4625.875-2.375.1875-4.9375.0125-7.3875-1.5625.025-3.125.0625-4.6875.1z"/><path d="m513.23 30.79h3.55c.06 4.13.06 8.25 0 12.38-.89 0-2.66 0-3.55 0-.07-4.12-.07-8.25 0-12.38z" transform="matrix(1.25 0 0 1.25 -2.50652 174.1722)"/></g><path d="m439.03 51.2c9.97-.42 19.96.12 29.94-.05 11.01-.35 22.01-.06 33.03-.02 8.74.02 17.48-.04 26.22.03-2.75 30.33-5.52 60.66-8.07 91.01-11.71 3.33-23.43 6.61-35.14 9.92-1.5.62-3.04.04-4.48-.35-11.13-3.2-22.26-6.37-33.41-9.45-2.9-30.34-5.63-60.71-8.09-91.09m44.78 7.91c-.41 14.96-.06 29.92-.18 44.88.11 13.68-.2 27.37.16 41.05 9.84-2.32 19.55-5.17 29.26-7.98 2.44-25.97 4.82-51.94 6.86-77.94-12.03-.12-24.07.02-36.1-.01m-12.52 58.42c-5.78-1.58-11.49-3.4-17.35-4.65-.17 3.48-.11 6.96.29 10.42 8.58 2.09 16.98 4.84 25.57 6.89.06-19.81-.03-39.63.04-59.44-2.8-.07-5.6-.11-8.4-.17-.32 15.64-.02 31.3-.15 46.95z" fill="#d6ba32" transform="matrix(1.25 0 0 1.25 -2.50652 174.1722)"/><path d="m483.81 59.11c12.03.03 24.07-.11 36.1.01-2.04 26-4.42 51.97-6.86 77.94-9.71 2.81-19.42 5.66-29.26 7.98-.36-13.68-.05-27.37-.16-41.05.12-14.96-.23-29.92.18-44.88m3.37 11.63c.04 12.88.05 25.77 0 38.65 5.88-.95 11.74-2.04 17.6-3.11-.09 3-.21 6-.34 9-5.71 1.52-11.41 3.09-17.15 4.5-.09 3.46-.1 6.92-.07 10.39 7.23-1.62 14.35-3.66 21.53-5.47.9-.42 2.63-.37 2.55-1.78.87-9.26 1.41-18.56 2.25-27.84-5.95.49-11.84 1.49-17.79 1.9-.05-5.26-.06-10.52.02-15.78 6.26 0 12.51 0 18.77.01.4-3.51.75-7.03 1.02-10.55-9.46.04-18.93-.09-28.39.08z" fill="#ffda3e" transform="matrix(1.25 0 0 1.25 -2.50652 174.1722)"/><path d="m586.60598 321.0847c.1625-19.5625-.2125-39.1375.1875-58.6875 3.5.075 7 .125 10.5.2125-.0875 24.7625.025 49.5375-.05 74.3-10.7375-2.5625-21.2375-6-31.9625-8.6125-.5-4.325-.575-8.675-.3625-13.025 7.325 1.5625 14.4625 3.8375 21.6875 5.8125z" fill="#ebebeb"/></g></svg>